<?xml version="1.0" standalone="no"?>
<!DOCTYPE svg PUBLIC "-//W3C//DTD SVG 20010904//EN"
 "http://www.w3.org/TR/2001/REC-SVG-20010904/DTD/svg10.dtd">
<svg version="1.0" xmlns="http://www.w3.org/2000/svg"
 width="600.000000pt" height="200.000000pt" viewBox="0 0 600.000000 200.000000"
 preserveAspectRatio="xMidYMid meet">

<g transform="translate(0.000000,200.000000) scale(0.100000,-0.100000)"
fill="#000000" stroke="none">
<path d="M995 1851 c-67 -16 -117 -65 -135 -130 -6 -23 -9 -132 -8 -267 3
-221 2 -231 -20 -280 -32 -71 -79 -114 -143 -130 -28 -7 -56 -11 -61 -8 -15 9
-38 -17 -38 -42 0 -21 4 -24 42 -24 95 0 181 -78 213 -192 13 -46 15 -100 13
-285 -3 -254 0 -269 64 -315 29 -20 46 -23 155 -26 115 -3 121 -3 128 17 3 12
3 25 0 31 -3 6 -50 10 -107 10 -119 0 -158 14 -184 68 -15 32 -16 58 -10 238
8 216 1 285 -36 357 -24 48 -83 114 -109 122 -18 6 -15 11 25 46 52 46 101
138 116 219 7 35 8 128 4 252 -10 277 -8 280 173 286 114 4 142 14 130 45 -6
16 -158 21 -212 8z"/>
<path d="M4794 1845 c-13 -34 15 -45 112 -45 114 0 166 -17 185 -61 9 -22 10
-80 5 -227 -4 -125 -3 -217 4 -252 15 -81 64 -173 116 -219 40 -35 43 -40 25
-46 -30 -9 -91 -82 -120 -144 l-26 -56 3 -243 c2 -205 0 -249 -14 -277 -24
-50 -64 -65 -182 -65 -57 0 -104 -4 -107 -10 -3 -6 -3 -19 0 -31 7 -20 13 -20
128 -17 109 3 126 6 155 26 64 46 67 61 64 315 -3 258 5 308 63 388 38 53 102
89 158 89 69 0 62 62 -7 67 -89 5 -146 47 -188 138 -22 48 -23 58 -20 279 2
246 -3 287 -44 336 -44 52 -78 63 -197 67 -88 2 -109 0 -113 -12z"/>
<path d="M2046 1455 c-43 -43 -20 -105 39 -105 62 0 89 57 48 103 -20 21 -66
22 -87 2z"/>
<path d="M4590 1450 c-39 -39 -12 -100 44 -100 39 0 66 26 66 62 0 53 -71 77
-110 38z"/>
<path d="M2880 1346 l0 -93 -39 19 c-78 39 -175 -15 -201 -112 -27 -100 3
-230 62 -273 39 -29 108 -28 147 1 27 19 32 21 37 7 4 -11 20 -15 55 -15 l49
0 0 38 1 37 14 -26 c35 -65 135 -84 209 -41 l38 22 25 -20 c40 -31 68 -26 80
14 9 28 8 36 -3 40 -11 4 -14 31 -14 116 0 123 -12 168 -54 195 -43 29 -104
37 -176 25 -91 -15 -95 -19 -76 -63 14 -35 16 -36 48 -27 80 24 148 5 148 -40
0 -15 -12 -19 -67 -25 -80 -8 -137 -35 -157 -73 -14 -25 -15 -10 -16 174 l0
201 -37 7 c-76 12 -73 16 -73 -88z m-18 -163 c15 -13 18 -31 18 -101 0 -74 -3
-89 -22 -109 -27 -29 -69 -30 -94 -2 -26 29 -27 163 -1 202 21 32 69 37 99 10z
m368 -160 c0 -49 -23 -73 -72 -73 -31 0 -41 5 -49 24 -21 46 19 84 89 85 30 1
32 -1 32 -36z"/>
<path d="M4080 1390 l0 -40 55 0 55 0 0 -172 c0 -95 4 -190 9 -211 19 -80 91
-118 182 -97 27 7 51 16 54 20 3 4 0 22 -6 39 -11 31 -13 32 -54 26 -74 -12
-75 -8 -75 251 l0 224 -110 0 -110 0 0 -40z"/>
<path d="M1260 1350 l0 -40 75 0 75 0 0 -155 c0 -140 -2 -157 -19 -174 -30
-30 -80 -35 -130 -15 -43 17 -44 17 -62 -7 -27 -35 -24 -46 22 -69 52 -27 152
-29 204 -4 45 21 81 64 95 112 5 20 10 117 10 215 l0 177 -135 0 -135 0 0 -40z"/>
<path d="M1550 1135 l0 -255 123 0 c180 1 236 31 245 135 5 63 -10 95 -57 120
l-29 15 34 34 c39 39 45 86 18 137 -26 51 -80 69 -216 69 l-118 0 0 -255z
m220 155 c24 -24 25 -48 4 -78 -12 -18 -25 -22 -65 -22 l-49 0 0 60 0 60 45 0
c32 0 51 -6 65 -20z m13 -202 c27 -21 32 -70 9 -97 -14 -19 -31 -25 -75 -29
l-57 -4 0 71 0 71 53 0 c29 0 61 -6 70 -12z"/>
<path d="M2390 1284 c-53 -10 -90 -26 -90 -39 0 -8 4 -25 10 -39 8 -23 12 -24
42 -15 43 12 105 12 129 -1 10 -6 19 -21 19 -34 0 -21 -6 -24 -62 -30 -75 -9
-115 -25 -146 -58 -49 -54 -33 -151 32 -185 45 -24 115 -21 160 5 l38 22 25
-20 c40 -31 68 -26 80 14 9 28 8 36 -3 40 -11 4 -14 32 -14 123 0 132 -13 168
-68 197 -32 16 -113 27 -152 20z m110 -261 c0 -49 -23 -73 -72 -73 -32 0 -40
4 -48 26 -18 47 18 82 88 83 30 1 32 -1 32 -36z"/>
<path d="M3845 1275 c-51 -18 -100 -73 -114 -130 -49 -194 106 -342 271 -259
105 54 128 251 40 343 -54 57 -121 73 -197 46z m110 -89 c16 -11 20 -30 23
-90 6 -118 -22 -160 -93 -142 -36 9 -47 47 -43 139 3 64 7 81 23 93 24 18 66
18 90 0z"/>
<path d="M1940 1240 l0 -40 55 0 55 0 0 -125 0 -125 -55 0 -55 0 0 -35 0 -35
160 0 160 0 0 35 0 35 -50 0 -50 0 -2 163 -3 162 -107 3 -108 3 0 -41z"/>
<path d="M3352 1266 c2 -7 30 -97 63 -200 47 -146 64 -186 77 -186 15 0 16 -4
6 -25 -11 -24 -62 -55 -92 -55 -11 0 -16 -9 -16 -29 0 -51 7 -59 48 -51 112
20 142 64 231 333 39 117 71 215 71 220 0 4 -23 7 -50 7 -60 0 -54 10 -106
-178 -20 -73 -38 -131 -39 -130 -2 2 -17 57 -34 123 -53 201 -44 185 -108 185
-41 0 -54 -3 -51 -14z"/>
<path d="M4490 1240 l0 -40 55 0 55 0 0 -125 0 -125 -60 0 -60 0 0 -35 0 -35
165 0 165 0 0 35 0 35 -50 0 -50 0 -2 163 -3 162 -107 3 -108 3 0 -41z"/>
<path d="M3255 730 c-3 -6 5 -10 19 -10 25 0 25 -1 28 -92 l3 -93 33 -3 c22
-2 32 1 32 11 0 8 -10 13 -22 13 -22 -1 -23 3 -26 92 l-3 92 -29 0 c-16 0 -32
-4 -35 -10z"/>
<path d="M2724 717 c-3 -8 -4 -52 -2 -98 l3 -84 38 -3 c32 -3 43 2 67 28 18
20 30 26 30 18 0 -34 53 -58 94 -42 28 11 17 26 -13 19 -20 -4 -34 -1 -47 12
-17 17 -16 18 32 23 55 6 67 24 40 65 -28 43 -89 28 -109 -25 -3 -8 -6 -3 -6
13 -1 41 -17 63 -52 76 -43 15 -69 14 -75 -2z m86 -32 c17 -21 16 -93 -1 -110
-8 -7 -24 -16 -36 -20 -22 -6 -23 -4 -23 69 0 73 1 76 24 76 13 0 29 -7 36
-15z m138 -47 c3 -15 -4 -18 -33 -18 -33 0 -35 2 -25 21 14 24 53 22 58 -3z"/>
<path d="M2990 671 c0 -16 41 -125 51 -135 14 -15 25 2 53 77 21 53 23 67 11
67 -8 0 -21 -22 -31 -55 -10 -30 -20 -52 -23 -49 -3 3 -13 26 -22 52 -14 41
-39 69 -39 43z"/>
<path d="M3141 654 c-27 -34 -27 -64 0 -98 20 -25 50 -33 83 -20 29 11 17 26
-14 19 -19 -4 -36 -2 -45 5 -26 21 -17 30 30 30 53 0 64 14 43 57 -19 40 -68
44 -97 7z m77 -16 c3 -15 -4 -18 -32 -18 -38 0 -44 8 -24 28 17 17 52 11 56
-10z"/>
<path d="M3406 658 c-35 -50 -9 -128 43 -128 52 0 81 57 57 114 -13 32 -19 36
-50 36 -25 0 -39 -6 -50 -22z m75 -22 c22 -49 -12 -104 -46 -76 -15 12 -21 81
-8 93 14 15 44 6 54 -17z"/>
<path d="M3530 573 c0 -79 3 -104 13 -101 6 3 13 17 15 31 3 22 8 27 32 27 53
0 80 78 44 128 -12 18 -24 22 -60 20 l-44 -1 0 -104z m88 41 c3 -44 -16 -71
-43 -60 -10 4 -15 19 -15 49 0 50 6 59 35 55 16 -2 21 -12 23 -44z"/>
<path d="M3676 658 c-21 -29 -20 -77 0 -106 12 -18 24 -22 52 -20 19 2 38 9
40 17 3 10 -2 12 -21 7 -31 -7 -57 1 -57 20 0 10 13 14 45 14 43 0 45 1 45 28
0 57 -73 85 -104 40z m74 -18 c10 -18 8 -20 -25 -20 -22 0 -35 5 -35 13 0 33
44 37 60 7z"/>
<path d="M3800 669 c0 -5 5 -9 10 -9 6 0 10 -25 10 -55 0 -30 -4 -55 -10 -55
-5 0 -10 -4 -10 -10 0 -5 15 -10 34 -10 19 0 38 5 41 10 3 6 -1 10 -9 10 -19
0 -22 60 -6 91 13 23 30 25 30 4 0 -8 7 -15 15 -15 9 0 15 9 15 24 0 24 -3 25
-60 24 -33 0 -60 -5 -60 -9z"/>
</g>
</svg>
